<svg width="23" height="22" viewBox="0 0 23 22" fill="none" xmlns="http://www.w3.org/2000/svg">
<path d="M7.375 5.3125C7.375 6.451 6.451 7.375 5.3125 7.375C4.174 7.375 3.25 6.451 3.25 5.3125C3.25 4.174 4.174 3.25 5.3125 3.25C6.451 3.25 7.375 4.174 7.375 5.3125Z" fill="#ffffff"/>
<path d="M5.3125 0.5C2.7 0.5 0.5 2.7 0.5 5.3125C0.5 7.925 2.7 10.125 5.3125 10.125C7.925 10.125 10.125 7.925 10.125 5.3125C10.125 2.7 7.925 0.5 5.3125 0.5ZM5.3125 8.75C3.3875 8.75 1.875 7.2375 1.875 5.3125C1.875 3.3875 3.3875 1.875 5.3125 1.875C7.2375 1.875 8.75 3.3875 8.75 5.3125C8.75 7.2375 7.2375 8.75 5.3125 8.75Z" fill="#ffffff"/>
<path d="M5.3125 11.5C2.7 11.5 0.5 13.7 0.5 16.3125C0.5 18.925 2.7 21.125 5.3125 21.125C7.925 21.125 10.125 18.925 10.125 16.3125C10.125 13.7 7.925 11.5 5.3125 11.5ZM5.3125 19.75C3.3875 19.75 1.875 18.2375 1.875 16.3125C1.875 14.3875 3.3875 12.875 5.3125 12.875C7.2375 12.875 8.75 14.3875 8.75 16.3125C8.75 18.2375 7.2375 19.75 5.3125 19.75Z" fill="#ffffff"/>
<path d="M11.5 5.25C11.5 4.14543 12.3954 3.25 13.5 3.25H20.5C21.6046 3.25 22.5 4.14543 22.5 5.25V5.375C22.5 6.47957 21.6046 7.375 20.5 7.375H13.5C12.3954 7.375 11.5 6.47957 11.5 5.375V5.25Z" fill="#ffffff"/>
<path d="M11.5 16.25C11.5 15.1454 12.3954 14.25 13.5 14.25H20.5C21.6046 14.25 22.5 15.1454 22.5 16.25V16.375C22.5 17.4796 21.6046 18.375 20.5 18.375H13.5C12.3954 18.375 11.5 17.4796 11.5 16.375V16.25Z" fill="#ffffff"/>
</svg>
